<svg xmlns="http://www.w3.org/2000/svg" viewBox="0 0 1000 1000" class="a"><path fill="#3b5998" d="M989.9 806.2c0 50.6-18 93.9-53.9 129.8 -35.9 36-79.2 53.9-129.9 53.9H683.7V602.1h129.5l19.1-142.9H683.7v-91.2c0-23 6-40.6 17.9-53 11.9-12.3 32.3-18.5 61.2-18.5l84.2-0.7V163.8c-40.8-3.8-79.1-5.8-114.8-5.8 -57.8 0-104.2 17.1-139.1 51.4 -34.9 34.2-52.3 82.2-52.3 143.9v105.9H397.9v142.9h142.9V990H193.8c-50.6 0-93.9-18-129.8-53.9C27.9 900.2 10 856.9 10 806.2V193.7c0-50.6 18-93.9 53.9-129.9C99.8 27.9 143.1 10 193.8 10h612.5c50.6 0 93.9 18 129.8 53.9 36 35.9 53.9 79.2 53.9 129.9L989.9 806.2 989.9 806.2z" class="b"/></svg>