<svg version="1.1" xmlns="http://www.w3.org/2000/svg" xmlns:xlink="http://www.w3.org/1999/xlink" viewBox="0 0 170 169.999">

<g id="background">
</g>
<g id="Objects_1_">
	<g>
		<g id="men_5">
			<g>
				<circle fill="#73BF44" cx="85" cy="84.999" r="85"/>
				<path fill="#73BF44" d="M170,84.999C170,38.056,131.944,0,85.001,0v169.999C131.944,169.999,170,131.943,170,84.999z"/>
			</g>
			<g>
				<defs>
					<circle id="SVGID_1_" cx="85.001" cy="85" r="85"/>
				</defs>
				<clipPath id="SVGID_2_">
					<use xlink:href="#SVGID_1_"  overflow="visible"/>
				</clipPath>
				<g clip-path="url(#SVGID_2_)">
					<rect x="72.87" y="106.438" fill="#D9A78C" width="24.893" height="27.295"/>
					<path fill="#178BCC" d="M97.605,120.96h4.245c7.908,2.038,16.562,3.483,22.321,10.152c3.589,4.155,9.822,38.889,9.822,38.889
						h-15.079H85.158v-31.812v-7.512C92.032,130.678,97.605,126.327,97.605,120.96z"/>
					<path fill="#178BCC" d="M72.711,120.96h-4.236c-7.908,2.038-16.57,3.483-22.33,10.152c-3.589,4.155-9.822,38.889-9.822,38.889
						h15.079h33.757v-31.812v-7.512C78.284,130.678,72.711,126.327,72.711,120.96z"/>
					<g>
						<path fill="#EAC0A7" d="M85.315,28.334c12.086,0,31.199,6.871,31.199,39.066c0,18.59-6.061,30.768-8.701,34.137
							c-2.43,3.1-16.09,9.704-22.498,9.704C85.315,78.703,85.315,28.334,85.315,28.334z"/>
						<path fill="#EAC0A7" d="M122.526,75.077c0.533-5.144-1.918-9.709-5.473-10.197c-3.558-0.487-6.871,3.288-7.405,8.433
							c-0.533,5.143,1.918,9.707,5.476,10.195C118.679,83.994,121.993,80.22,122.526,75.077z"/>
					</g>
					<g>
						<path fill="#F2D7BC" d="M85.315,28.334c-12.086,0-31.199,6.871-31.199,39.066c0,18.59,6.06,30.768,8.701,34.137
							c2.43,3.1,16.089,9.704,22.498,9.704C85.315,78.703,85.315,28.334,85.315,28.334z"/>
						<path fill="#F2D7BC" d="M48.104,75.077c-0.533-5.144,1.918-9.709,5.473-10.197c3.557-0.487,6.871,3.288,7.404,8.433
							c0.534,5.143-1.918,9.707-5.475,10.195C51.952,83.994,48.637,80.22,48.104,75.077z"/>
					</g>
					<path fill="#FFFFFF" d="M85.315,99.096c5.634,0,10.2-1.861,10.2-4.156H75.116C75.116,97.234,79.683,99.096,85.315,99.096z"/>
					<path fill="#553828" d="M110.458,69.953c1.301-3.32,3.875-5.446,6.596-5.073c0.006,0.001,0.014,0.003,0.021,0.005
						c1.233-3.819,1.676-8.359-0.017-13.178c-9-25.623,1.223-30.197,1.223-30.197s-9.953-0.445-17.674,5.945
						c5.324-8.254,7.721-10.385,7.721-10.385s-11.182-2.396-23.162,9.852c2.662-6.656,5.857-10.041,5.857-10.041
						s-25.027,0.189-34.08,18.295c-5.16,10.319-5.559,21.499-4.31,29.949c0.306-0.11,0.618-0.2,0.944-0.245
						c1.181-0.161,2.332,0.153,3.365,0.825c0-3.904,0-7.357,0-7.898c4.793-2.131,9.852-4.793,9.585-15.443
						c11.183,0,17.306,0,17.306,0h17.838c0,0-0.799,11.982,8.787,14.91C110.458,62.27,110.458,66.679,110.458,69.953z"/>
					<path fill="#2F4384" d="M85.163,133.83c9.215,0,16.688-5.762,16.688-12.87h-4.275c0,5.357-5.555,9.702-12.412,9.717
						c-6.859-0.015-12.413-4.359-12.413-9.717h-4.275C68.475,128.068,75.946,133.83,85.163,133.83z"/>
				</g>
			</g>
		</g>
	</g>
	<g display="none">
		<path display="inline" fill="#C4C4C4" d="M99.079,507.08h0.755v-0.957c0-0.992,0.122-1.782,0.376-2.369
			c0.247-0.585,0.68-1.011,1.28-1.28c0.6-0.264,1.426-0.397,2.469-0.397c1.857,0,2.779,0.448,2.779,1.365
			c0,0.29-0.099,0.546-0.296,0.75c-0.188,0.211-0.418,0.314-0.683,0.314c-0.121,0-0.337-0.02-0.645-0.07
			c-0.288-0.045-0.554-0.073-0.761-0.073c-0.572,0-0.938,0.172-1.107,0.514c-0.157,0.33-0.24,0.813-0.24,1.446v0.758h0.775
			c1.211,0,1.811,0.357,1.811,1.093c0,0.514-0.153,0.843-0.478,0.986c-0.321,0.139-0.766,0.207-1.333,0.207h-0.775v8.407
			c0,0.625-0.146,1.101-0.454,1.426c-0.293,0.334-0.674,0.5-1.149,0.5c-0.451,0-0.822-0.166-1.124-0.5
			c-0.296-0.325-0.445-0.801-0.445-1.426v-8.407h-0.871c-0.479,0-0.836-0.102-1.095-0.317c-0.257-0.209-0.384-0.488-0.384-0.834
			C97.484,507.455,98.015,507.08,99.079,507.08"/>
		<path display="inline" fill="#C4C4C4" d="M109.464,515.122v2.651c0,0.64-0.163,1.121-0.459,1.442
			c-0.302,0.325-0.683,0.483-1.146,0.483c-0.466,0-0.839-0.158-1.13-0.493c-0.292-0.322-0.44-0.798-0.44-1.433v-8.835
			c0-1.428,0.514-2.144,1.541-2.144c0.53,0,0.906,0.167,1.142,0.498c0.231,0.338,0.358,0.829,0.387,1.481
			c0.377-0.652,0.764-1.144,1.163-1.481c0.403-0.331,0.932-0.498,1.6-0.498c0.671,0,1.312,0.167,1.94,0.498
			c0.629,0.338,0.941,0.784,0.941,1.328c0,0.39-0.135,0.71-0.396,0.959c-0.272,0.254-0.561,0.38-0.865,0.38
			c-0.123,0-0.404-0.073-0.849-0.219c-0.445-0.139-0.84-0.21-1.179-0.21c-0.465,0-0.846,0.121-1.135,0.363
			c-0.297,0.247-0.528,0.607-0.693,1.087c-0.156,0.48-0.268,1.054-0.332,1.713C109.491,513.362,109.464,514.168,109.464,515.122"/>
		<path display="inline" fill="#C4C4C4" d="M124.05,514.026h-6.208c0.011,0.723,0.149,1.363,0.434,1.909
			c0.285,0.547,0.664,0.963,1.131,1.244c0.471,0.279,0.984,0.418,1.549,0.418c0.383,0,0.729-0.046,1.044-0.139
			c0.311-0.083,0.617-0.227,0.909-0.417c0.296-0.19,0.564-0.389,0.813-0.611c0.248-0.216,0.572-0.511,0.965-0.883
			c0.169-0.138,0.399-0.209,0.698-0.209c0.327,0,0.589,0.088,0.793,0.271c0.203,0.177,0.301,0.426,0.301,0.756
			c0,0.287-0.111,0.619-0.328,1.005c-0.231,0.388-0.568,0.747-1.023,1.103c-0.457,0.35-1.027,0.649-1.709,0.88
			c-0.687,0.23-1.477,0.346-2.366,0.346c-2.044,0-3.626-0.576-4.755-1.741c-1.129-1.167-1.7-2.739-1.7-4.729
			c0-0.936,0.143-1.81,0.425-2.615c0.274-0.807,0.685-1.486,1.221-2.065c0.533-0.569,1.188-1.01,1.974-1.314
			c0.781-0.305,1.649-0.458,2.604-0.458c1.238,0,2.301,0.259,3.189,0.785c0.883,0.523,1.557,1.198,1.991,2.026
			c0.441,0.832,0.664,1.678,0.664,2.539c0,0.79-0.231,1.309-0.688,1.545C125.519,513.911,124.879,514.026,124.05,514.026
			 M117.842,512.224h5.754c-0.081-1.081-0.367-1.894-0.876-2.432c-0.511-0.537-1.176-0.804-2.008-0.804
			c-0.791,0-1.439,0.267-1.947,0.813C118.258,510.353,117.949,511.159,117.842,512.224"/>
		<path display="inline" fill="#C4C4C4" d="M137.245,514.026h-6.205c0.008,0.723,0.152,1.363,0.433,1.909
			c0.28,0.547,0.662,0.963,1.128,1.244c0.469,0.279,0.986,0.418,1.554,0.418c0.377,0,0.727-0.046,1.037-0.139
			c0.313-0.083,0.615-0.227,0.914-0.417c0.296-0.19,0.563-0.389,0.813-0.611c0.242-0.216,0.57-0.511,0.961-0.883
			c0.167-0.138,0.401-0.209,0.699-0.209c0.329,0,0.587,0.088,0.796,0.271c0.198,0.177,0.296,0.426,0.296,0.756
			c0,0.287-0.113,0.619-0.335,1.005c-0.217,0.388-0.559,0.747-1.018,1.103c-0.455,0.35-1.025,0.649-1.707,0.88
			s-1.478,0.346-2.369,0.346c-2.038,0-3.619-0.576-4.754-1.741c-1.129-1.167-1.696-2.739-1.696-4.729
			c0-0.936,0.139-1.81,0.422-2.615c0.276-0.807,0.683-1.486,1.218-2.065c0.533-0.569,1.191-1.01,1.978-1.314
			c0.78-0.305,1.651-0.458,2.602-0.458c1.237,0,2.3,0.259,3.2,0.785c0.882,0.523,1.547,1.198,1.983,2.026
			c0.436,0.832,0.667,1.678,0.667,2.539c0,0.79-0.234,1.309-0.687,1.545C138.715,513.911,138.074,514.026,137.245,514.026
			 M131.04,512.224h5.75c-0.076-1.081-0.371-1.894-0.874-2.432c-0.514-0.537-1.177-0.804-2.008-0.804
			c-0.792,0-1.438,0.267-1.949,0.813C131.453,510.353,131.141,511.159,131.04,512.224"/>
		<path display="inline" fill="#C4C4C4" d="M144.194,508.58v0.381c0.595-0.733,1.22-1.274,1.868-1.621
			c0.63-0.342,1.363-0.522,2.178-0.522c0.973,0,1.88,0.255,2.701,0.759c0.821,0.508,1.464,1.237,1.941,2.211
			c0.479,0.972,0.719,2.114,0.719,3.441c0,0.973-0.139,1.869-0.41,2.691c-0.274,0.816-0.658,1.502-1.136,2.053
			c-0.483,0.551-1.049,0.984-1.7,1.282c-0.663,0.297-1.36,0.444-2.115,0.444c-0.904,0-1.669-0.181-2.281-0.548
			c-0.618-0.355-1.202-0.899-1.765-1.6v4.763c0,1.395-0.511,2.092-1.521,2.092c-0.601,0-0.989-0.177-1.189-0.537
			c-0.186-0.364-0.286-0.884-0.286-1.578v-13.693c0-0.604,0.131-1.055,0.392-1.352c0.264-0.295,0.626-0.451,1.084-0.451
			c0.451,0,0.813,0.156,1.094,0.461C144.057,507.565,144.194,508.001,144.194,508.58 M150.416,513.19
			c0-0.838-0.13-1.556-0.387-2.152c-0.255-0.607-0.608-1.06-1.063-1.386c-0.445-0.321-0.953-0.481-1.506-0.481
			c-0.871,0-1.609,0.344-2.21,1.033c-0.602,0.69-0.904,1.703-0.904,3.047c0,1.259,0.301,2.242,0.898,2.949
			c0.598,0.697,1.331,1.048,2.216,1.048c0.527,0,1.018-0.157,1.468-0.457c0.453-0.309,0.813-0.765,1.08-1.381
			C150.278,514.799,150.416,514.055,150.416,513.19"/>
		<path display="inline" fill="#C4C4C4" d="M156.795,505.316c-0.445,0-0.817-0.139-1.128-0.401
			c-0.315-0.281-0.476-0.657-0.476-1.149c0-0.45,0.162-0.822,0.486-1.11c0.319-0.292,0.696-0.44,1.117-0.44
			c0.417,0,0.776,0.134,1.095,0.395c0.317,0.268,0.478,0.651,0.478,1.156c0,0.486-0.155,0.868-0.465,1.144
			C157.592,505.178,157.228,505.316,156.795,505.316 M158.367,508.598v9.176c0,0.635-0.152,1.11-0.453,1.433
			c-0.306,0.335-0.687,0.493-1.15,0.493c-0.469,0-0.838-0.166-1.136-0.5c-0.286-0.338-0.437-0.809-0.437-1.426v-9.087
			c0-0.619,0.15-1.093,0.437-1.407c0.298-0.328,0.667-0.484,1.136-0.484c0.464,0,0.845,0.156,1.15,0.484
			C158.215,507.594,158.367,508.039,158.367,508.598"/>
		<path display="inline" fill="#C4C4C4" d="M168.596,518.252l-2.795-4.607l-1.725,1.626v2.526c0,0.611-0.16,1.076-0.486,1.401
			c-0.313,0.335-0.69,0.501-1.106,0.501c-0.491,0-0.872-0.158-1.154-0.493c-0.272-0.322-0.417-0.798-0.417-1.433v-13.537
			c0-0.702,0.137-1.238,0.405-1.604c0.274-0.372,0.665-0.556,1.166-0.556c0.487,0,0.87,0.167,1.158,0.507
			c0.29,0.327,0.435,0.82,0.435,1.47v7.697l3.567-3.744c0.443-0.463,0.776-0.782,1.013-0.954c0.235-0.166,0.514-0.257,0.844-0.257
			c0.399,0,0.728,0.128,0.999,0.378c0.259,0.254,0.391,0.568,0.391,0.949c0,0.458-0.432,1.088-1.288,1.86l-1.686,1.541l3.252,5.12
			c0.234,0.38,0.413,0.666,0.519,0.865c0.103,0.194,0.157,0.389,0.157,0.564c0,0.506-0.136,0.899-0.414,1.193
			c-0.276,0.289-0.644,0.433-1.086,0.433c-0.387,0-0.687-0.098-0.896-0.313C169.238,519.172,168.949,518.796,168.596,518.252"/>
		<path display="inline" fill="#C4C4C4" d="M175.488,519.699c-0.48,0-0.891-0.153-1.24-0.465c-0.349-0.306-0.525-0.743-0.525-1.305
			c0-0.471,0.172-0.878,0.504-1.216c0.335-0.343,0.745-0.509,1.229-0.509c0.488,0,0.905,0.166,1.255,0.499
			c0.341,0.338,0.519,0.75,0.519,1.226c0,0.557-0.178,0.986-0.519,1.297C176.361,519.546,175.952,519.699,175.488,519.699"/>
		<path display="inline" fill="#C4C4C4" d="M191.271,515.77c0,0.397-0.121,0.818-0.356,1.267c-0.235,0.455-0.598,0.876-1.086,1.29
			c-0.481,0.404-1.09,0.729-1.828,0.98c-0.735,0.245-1.564,0.374-2.483,0.374c-1.965,0-3.497-0.573-4.598-1.718
			c-1.097-1.144-1.649-2.675-1.649-4.595c0-1.311,0.251-2.456,0.76-3.459c0.499-0.994,1.228-1.77,2.182-2.315
			c0.952-0.55,2.097-0.818,3.417-0.818c0.821,0,1.575,0.121,2.267,0.36c0.687,0.236,1.262,0.551,1.744,0.926
			c0.471,0.388,0.837,0.788,1.088,1.213c0.251,0.435,0.375,0.834,0.375,1.212c0,0.375-0.139,0.699-0.421,0.96
			c-0.284,0.267-0.63,0.4-1.026,0.4c-0.267,0-0.486-0.073-0.662-0.207c-0.174-0.139-0.37-0.355-0.586-0.658
			c-0.389-0.591-0.79-1.031-1.216-1.323c-0.418-0.3-0.956-0.444-1.607-0.444c-0.933,0-1.695,0.366-2.268,1.102
			c-0.572,0.727-0.86,1.737-0.86,3.001c0,0.595,0.078,1.151,0.225,1.647c0.141,0.496,0.356,0.924,0.636,1.279
			c0.282,0.35,0.616,0.614,1.009,0.799c0.399,0.19,0.834,0.279,1.304,0.279c0.638,0,1.183-0.152,1.634-0.447
			c0.462-0.294,0.859-0.744,1.209-1.347c0.192-0.354,0.397-0.635,0.619-0.833c0.225-0.198,0.501-0.306,0.827-0.306
			c0.391,0,0.713,0.149,0.965,0.443C191.14,515.122,191.271,515.444,191.271,515.77"/>
		<path display="inline" fill="#C4C4C4" d="M204.961,513.251c0,0.944-0.149,1.813-0.434,2.614c-0.304,0.799-0.725,1.488-1.286,2.053
			c-0.555,0.578-1.228,1.017-1.995,1.321c-0.783,0.307-1.652,0.46-2.62,0.46c-0.959,0-1.824-0.153-2.592-0.465
			c-0.763-0.306-1.433-0.753-1.991-1.327c-0.563-0.581-0.987-1.264-1.285-2.047c-0.28-0.789-0.433-1.659-0.433-2.609
			c0-0.959,0.157-1.843,0.441-2.644c0.295-0.802,0.72-1.48,1.272-2.042c0.553-0.564,1.212-1.005,1.995-1.31
			c0.785-0.305,1.65-0.461,2.592-0.461c0.961,0,1.833,0.156,2.62,0.466c0.778,0.31,1.445,0.756,2.008,1.319
			c0.561,0.585,0.983,1.263,1.276,2.05C204.813,511.423,204.961,512.296,204.961,513.251 M201.774,513.251
			c0-1.295-0.285-2.296-0.854-3.02c-0.568-0.727-1.334-1.087-2.295-1.087c-0.621,0-1.165,0.158-1.641,0.48
			c-0.474,0.325-0.831,0.795-1.092,1.428c-0.253,0.628-0.382,1.359-0.382,2.198c0,0.834,0.124,1.548,0.376,2.171
			c0.257,0.619,0.613,1.098,1.086,1.426c0.472,0.327,1.021,0.496,1.652,0.496c0.961,0,1.727-0.362,2.295-1.089
			C201.489,515.527,201.774,514.528,201.774,513.251"/>
		<path display="inline" fill="#C4C4C4" d="M217.061,513.483v4.22c0,0.667-0.144,1.158-0.448,1.496
			c-0.307,0.334-0.699,0.5-1.198,0.5c-0.479,0-0.874-0.166-1.162-0.5c-0.304-0.338-0.454-0.829-0.454-1.496v-5.059
			c0-0.798-0.025-1.421-0.08-1.865c-0.056-0.432-0.204-0.797-0.442-1.084c-0.241-0.281-0.623-0.426-1.14-0.426
			c-1.042,0-1.724,0.355-2.05,1.078c-0.326,0.705-0.497,1.733-0.497,3.07v4.285c0,0.655-0.151,1.153-0.444,1.491
			c-0.302,0.339-0.694,0.505-1.182,0.505c-0.479,0-0.875-0.166-1.182-0.505c-0.307-0.338-0.463-0.836-0.463-1.491v-9.082
			c0-0.592,0.144-1.051,0.413-1.36c0.283-0.31,0.643-0.466,1.09-0.466c0.435,0,0.797,0.151,1.09,0.438
			c0.29,0.286,0.432,0.689,0.432,1.203v0.3c0.559-0.652,1.144-1.143,1.769-1.447c0.634-0.315,1.323-0.472,2.097-0.472
			c0.796,0,1.481,0.162,2.054,0.476c0.574,0.323,1.044,0.807,1.418,1.443c0.539-0.646,1.113-1.134,1.725-1.447
			c0.613-0.31,1.29-0.472,2.033-0.472c0.865,0,1.619,0.18,2.246,0.517c0.624,0.337,1.09,0.833,1.401,1.457
			c0.273,0.58,0.405,1.484,0.405,2.716v6.196c0,0.667-0.15,1.158-0.452,1.496c-0.297,0.334-0.7,0.5-1.197,0.5
			c-0.48,0-0.871-0.166-1.177-0.505c-0.308-0.338-0.46-0.836-0.46-1.491v-5.341c0-0.682-0.031-1.226-0.087-1.64
			c-0.06-0.407-0.214-0.753-0.469-1.032c-0.259-0.276-0.649-0.421-1.165-0.421c-0.418,0-0.816,0.135-1.191,0.379
			c-0.376,0.246-0.669,0.583-0.884,0.992C217.183,511.181,217.061,512.125,217.061,513.483"/>
		<path display="inline" fill-rule="evenodd" clip-rule="evenodd" fill="#C4C4C4" d="M77.104,520.81c0,0-1.732-0.277-3.422-2.124
			c-1.701-1.866-1.988-3.839-1.988-3.839s2.158,0.508,3.709,0.681c2.734,0.31,5.195,0.139,6.354,0.01
			c2.51-0.277,3.849-0.738,4.393-0.871c3.207-0.772,6.291-2.848,6.291-2.848s0.391,2.41-1.42,5.084
			c-0.708,1.042-2.117,2.241-3.738,3.069C81.726,522.342,77.104,520.81,77.104,520.81"/>
		<path display="inline" fill-rule="evenodd" clip-rule="evenodd" fill="#C4C4C4" d="M90.221,507.112
			c-0.594-0.724-2.583-4.129-6.606-4.626c-1.027-0.123-6.468,0.091-9.731,3.107c-0.322,0.308-1.979,1.76-2.527,4.471
			c-0.43,2.094,0.271,4.451,0.271,4.451s3.619,0.754,6.346,0.684c4.322-0.106,6.501-0.489,8.761-1.174
			c3.328-1.006,5.687-2.694,5.687-2.694S90.821,507.84,90.221,507.112 M77.742,512.296c-1.826,0.116-3.401-1.258-3.514-3.082
			c-0.113-1.813,1.279-3.389,3.105-3.499c1.83-0.126,3.408,1.259,3.516,3.072C80.965,510.607,79.57,512.181,77.742,512.296
			 M87.085,509.95c-1.15,0.064-2.142-0.801-2.214-1.944c-0.072-1.142,0.807-2.133,1.955-2.203c1.148-0.077,2.146,0.796,2.215,1.935
			C89.113,508.883,88.233,509.875,87.085,509.95"/>
		<path display="inline" fill-rule="evenodd" clip-rule="evenodd" fill="#C4C4C4" d="M88.658,504.753l1.051-1.262
			c0,0,1.451,0.718,2.386,2.06c0.928,1.34,1.534,2.566,1.534,2.566l-1.736,1.054c0,0-0.536-1.293-1.344-2.331
			C89.744,505.809,88.658,504.753,88.658,504.753"/>
		<path display="inline" fill-rule="evenodd" clip-rule="evenodd" fill="#C4C4C4" d="M91.957,505.629
			c0.271-0.16,0.729-0.188,0.701-0.571c-0.02-0.384-0.279-1.139,0.479-1.397c0.761-0.256,0.333,0.227,0.071,0.559
			c-0.261,0.333-0.177,0.538-0.145,1.027c0.026,0.483-0.313,0.649-0.827,0.89C91.721,506.377,91.682,505.791,91.957,505.629"/>
		<path display="inline" fill-rule="evenodd" clip-rule="evenodd" fill="#C4C4C4" d="M72.682,506.404c0,0-1.217,1.412-1.528,2.689
			c-0.306,1.282-0.243,2.823-0.243,2.823l-1.8-0.62c0,0-0.104-1.771,0.716-3.202c0.912-1.589,2.077-2.297,2.077-2.297
			L72.682,506.404z"/>
		<path display="inline" fill-rule="evenodd" clip-rule="evenodd" fill="#C4C4C4" d="M70.031,508.011
			c-0.293-0.188-0.32-0.645-0.553-0.943c-0.23-0.305-0.289-0.121-0.817-0.121s-0.544-0.252-0.694-0.38
			c-0.15-0.134-0.221,0.402-0.221,0.402s0.098,0.448,0.664,0.481c0.564,0.032,0.549-0.244,0.792,0.264
			c0.245,0.514,0.726,0.901,0.726,0.901S70.328,508.205,70.031,508.011"/>
		<path display="inline" fill-rule="evenodd" clip-rule="evenodd" fill="#C4C4C4" d="M79.59,501.303
			c2.956-0.74,4.803,0.111,4.803,0.111l-0.156,0.852c0,0-2.16-0.144-3.875,0.11c-1.707,0.247-2.488,0.787-2.488,0.787l-0.371-0.848
			C77.502,502.315,78.313,501.623,79.59,501.303"/>
		<polygon display="inline" fill-rule="evenodd" clip-rule="evenodd" fill="#C4C4C4" points="80.477,500.09 80.892,499.938 
			81.441,501.409 81.029,501.568 		"/>
		<path display="inline" fill-rule="evenodd" clip-rule="evenodd" fill="#C4C4C4" d="M93.492,502.826
			c0.418-0.022,0.775,0.295,0.8,0.708c0.03,0.418-0.287,0.773-0.707,0.801c-0.418,0.027-0.776-0.292-0.8-0.702
			C92.758,503.214,93.074,502.859,93.492,502.826"/>
		<path display="inline" fill-rule="evenodd" clip-rule="evenodd" fill="#C4C4C4" d="M67.542,505.685
			c0.415-0.027,0.774,0.289,0.804,0.704c0.023,0.414-0.291,0.767-0.712,0.794c-0.414,0.027-0.771-0.286-0.801-0.7
			C66.807,506.067,67.127,505.715,67.542,505.685"/>
		<path display="inline" fill-rule="evenodd" clip-rule="evenodd" fill="#C4C4C4" d="M80.838,498.207
			c0.664-0.038,1.236,0.457,1.279,1.122c0.038,0.654-0.469,1.228-1.133,1.271c-0.664,0.045-1.229-0.456-1.274-1.12
			C79.664,498.817,80.172,498.247,80.838,498.207"/>
		<path display="inline" fill="#C4C4C4" d="M-13.562,517.952c0,0.744-0.468,1.231-1.114,1.231c-0.61,0-0.967-0.332-1.109-0.925
			c-0.414,0.68-1.273,1.014-2.028,1.014c-2.233,0-3.649-2.068-3.649-4.166c0-2.162,1.185-4.394,3.574-4.394
			c0.768,0,1.521,0.269,2.104,0.772v-3.021c0-0.736,0.465-1.226,1.109-1.226c0.646,0,1.114,0.489,1.114,1.226V517.952z
			 M-17.52,512.751c-1.154,0-1.727,1.208-1.727,2.258c0,1.032,0.572,2.239,1.727,2.239c1.213,0,1.734-1.233,1.734-2.317
			C-15.785,513.855-16.337,512.751-17.52,512.751"/>
		<path display="inline" fill="#C4C4C4" d="M-10.518,515.735c0.159,1.089,1.063,1.603,2.102,1.603c1.135,0,1.917-0.889,2.508-0.889
			c0.475,0,0.901,0.471,0.901,0.955c0,0.954-1.965,1.868-3.614,1.868c-2.497,0-4.156-1.813-4.156-4.264
			c0-2.249,1.631-4.296,3.971-4.296c2.4,0,3.988,2.185,3.988,4.036c0,0.661-0.293,0.986-0.969,0.986H-10.518z M-7.035,514.256
			c-0.12-0.972-0.737-1.689-1.771-1.689c-0.984,0-1.65,0.75-1.755,1.689H-7.035z"/>
		<path display="inline" fill="#C4C4C4" d="M0.637,513.302c-0.417,0-1.264-0.651-1.988-0.651c-0.399,0-0.756,0.188-0.756,0.624
			c0,1.031,3.852,0.876,3.852,3.401c0,1.476-1.246,2.597-3.16,2.597c-1.246,0-3.092-0.703-3.092-1.703
			c0-0.337,0.338-0.981,0.953-0.981c0.863,0,1.247,0.75,2.291,0.75c0.681,0,0.881-0.219,0.881-0.634c0-1.018-3.85-0.861-3.85-3.402
			c0-1.538,1.249-2.589,3.006-2.589c1.09,0,2.77,0.511,2.77,1.606C1.543,512.823,1.158,513.302,0.637,513.302"/>
		<path display="inline" fill="#C4C4C4" d="M4.854,508.698c0,0.695-0.553,1.28-1.247,1.28c-0.663,0-1.249-0.603-1.249-1.28
			c0-0.631,0.586-1.216,1.249-1.216C4.267,507.482,4.854,508.049,4.854,508.698 M2.496,512.043c0-0.74,0.463-1.237,1.11-1.237
			c0.646,0,1.106,0.497,1.106,1.237v5.909c0,0.744-0.461,1.231-1.106,1.231c-0.647,0-1.11-0.487-1.11-1.231V512.043z"/>
		<path display="inline" fill="#C4C4C4" d="M13.523,518.445c0,2.665-1.741,4.01-4.267,4.01c-0.909,0-3.497-0.451-3.497-1.667
			c0-0.413,0.463-0.97,0.898-0.97c0.705,0,1.491,0.688,2.77,0.688c1.081,0,1.877-0.622,1.877-1.755v-0.521h-0.029
			c-0.461,0.677-1.218,1.043-2.232,1.043c-2.324,0-3.419-2.04-3.419-4.246c0-2.231,1.411-4.313,3.647-4.313
			c0.758,0,1.613,0.34,2.033,1.015c0.141-0.579,0.492-0.922,1.109-0.922c0.646,0,1.109,0.497,1.109,1.237V518.445z M9.563,512.751
			c-1.153,0-1.72,1.197-1.72,2.23c0,1.186,0.566,2.267,1.72,2.267c1.185,0,1.741-1.114,1.741-2.193
			C11.305,513.982,10.783,512.751,9.563,512.751"/>
		<path display="inline" fill="#C4C4C4" d="M14.785,512.043c0-0.74,0.46-1.237,1.108-1.237c0.567,0,0.941,0.308,1.015,0.824
			c0.434-0.604,1.091-0.917,2.141-0.917c1.74,0,3.033,1.11,3.033,2.986v4.253c0,0.744-0.455,1.231-1.105,1.231
			c-0.643,0-1.111-0.487-1.111-1.231v-3.862c0-1.032-0.644-1.523-1.446-1.523c-0.911,0-1.417,0.662-1.417,1.523v3.862
			c0,0.744-0.463,1.231-1.108,1.231c-0.648,0-1.108-0.487-1.108-1.231V512.043z"/>
		<path display="inline" fill="#C4C4C4" d="M25.131,515.735c0.156,1.089,1.063,1.603,2.096,1.603c1.141,0,1.926-0.889,2.509-0.889
			c0.479,0,0.913,0.471,0.913,0.955c0,0.954-1.975,1.868-3.622,1.868c-2.497,0-4.157-1.813-4.157-4.264
			c0-2.249,1.63-4.296,3.972-4.296c2.404,0,3.989,2.185,3.989,4.036c0,0.661-0.294,0.986-0.97,0.986H25.131z M28.613,514.256
			c-0.123-0.972-0.742-1.689-1.772-1.689c-0.986,0-1.651,0.75-1.755,1.689H28.613z"/>
		<path display="inline" fill="#C4C4C4" d="M39.191,517.952c0,0.744-0.463,1.231-1.111,1.231c-0.613,0-0.965-0.332-1.105-0.925
			c-0.419,0.68-1.279,1.014-2.033,1.014c-2.232,0-3.648-2.068-3.648-4.166c0-2.162,1.186-4.394,3.574-4.394
			c0.768,0,1.522,0.269,2.107,0.772v-3.021c0-0.736,0.462-1.226,1.105-1.226c0.648,0,1.111,0.489,1.111,1.226V517.952z
			 M35.234,512.751c-1.155,0-1.725,1.208-1.725,2.258c0,1.032,0.569,2.239,1.725,2.239c1.213,0,1.74-1.233,1.74-2.317
			C36.975,513.855,36.42,512.751,35.234,512.751"/>
		<path display="inline" fill="#C4C4C4" d="M44.577,508.464c0-0.736,0.468-1.226,1.114-1.226c0.648,0,1.107,0.489,1.107,1.226v3.022
			c0.588-0.505,1.339-0.773,2.109-0.773c2.387,0,3.57,2.231,3.57,4.395c0,2.097-1.411,4.165-3.648,4.165
			c-0.754,0-1.616-0.334-2.031-1.014c-0.141,0.593-0.494,0.925-1.107,0.925c-0.646,0-1.114-0.487-1.114-1.231V508.464z
			 M48.539,517.248c1.154,0,1.723-1.207,1.723-2.239c0-1.05-0.568-2.258-1.723-2.258c-1.186,0-1.74,1.104-1.74,2.18
			C46.799,516.015,47.326,517.248,48.539,517.248"/>
		<path display="inline" fill="#C4C4C4" d="M52.865,512.33c-0.062-0.166-0.111-0.338-0.111-0.566c0-0.56,0.588-0.958,1.051-0.958
			c0.536,0,0.922,0.297,1.109,0.784l1.52,4.18l1.637-4.18c0.186-0.487,0.567-0.784,1.109-0.784c0.461,0,1.045,0.398,1.045,0.958
			c0,0.229-0.031,0.4-0.105,0.566l-3.713,9.243c-0.18,0.458-0.522,0.882-1.047,0.882c-0.754,0-1.152-0.483-1.152-0.954
			c0-0.225,0.063-0.451,0.134-0.651l0.972-2.404L52.865,512.33z"/>
	</g>
</g>
</svg>
