<?xml version="1.0" encoding="utf-8"?>
<!-- Generator: Adobe Illustrator 16.0.0, SVG Export Plug-In . SVG Version: 6.00 Build 0)  -->
<!DOCTYPE svg PUBLIC "-//W3C//DTD SVG 1.1//EN" "http://www.w3.org/Graphics/SVG/1.1/DTD/svg11.dtd" [
	<!ENTITY ns_extend "http://ns.adobe.com/Extensibility/1.0/">
	<!ENTITY ns_ai "http://ns.adobe.com/AdobeIllustrator/10.0/">
	<!ENTITY ns_graphs "http://ns.adobe.com/Graphs/1.0/">
	<!ENTITY ns_vars "http://ns.adobe.com/Variables/1.0/">
	<!ENTITY ns_imrep "http://ns.adobe.com/ImageReplacement/1.0/">
	<!ENTITY ns_sfw "http://ns.adobe.com/SaveForWeb/1.0/">
	<!ENTITY ns_custom "http://ns.adobe.com/GenericCustomNamespace/1.0/">
	<!ENTITY ns_adobe_xpath "http://ns.adobe.com/XPath/1.0/">
]>
<svg version="1.1" xmlns:x="&ns_extend;" xmlns:i="&ns_ai;" xmlns:graph="&ns_graphs;"
	 xmlns="http://www.w3.org/2000/svg" xmlns:xlink="http://www.w3.org/1999/xlink" x="0px" y="0px" width="800px" height="800px"
	 viewBox="0 0 800 800" enable-background="new 0 0 800 800" xml:space="preserve">
<metadata>
	<sfw  xmlns="&ns_sfw;">
		<slices></slices>
		<sliceSourceBounds  width="800" height="800" y="-800" x="0" bottomLeftOrigin="true"></sliceSourceBounds>
	</sfw>
</metadata>
<g id="background">
	<rect fill="#2D3AE0" width="800" height="800"/>
</g>
<g id="object">
	<g>
		<g>
			<path fill="#EADCC1" d="M388,678c-2.356,0-4.655,0.247-6.872,0.717v-54.363h-13.731v60.878c-3.472,2.78-6.374,6.244-8.492,10.192
				c-5.461-1.923-11.202-3.246-17.141-3.916V590.023h-24.718v84.301c-2.44-2.07-5.595-3.324-9.045-3.324
				c-4.746,0-8.933,2.367-11.464,5.979c-2.913-0.632-5.933-0.979-9.036-0.979c-23.472,0-42.5,19.028-42.5,42.5
				c0,0.981,0.045,1.951,0.111,2.916C240.186,719.851,234.943,719,229.5,719c-13.74,0-26.214,5.392-35.448,14.161
				C184.31,724.953,171.736,720,158,720c-20.049,0-37.626,10.543-47.52,26.38c-2.584-2.111-5.883-3.38-9.48-3.38
				c-8.284,0-15,6.716-15,15s6.716,15,15,15c0.367,0,0.726-0.029,1.086-0.055C102.032,773.957,102,774.975,102,776
				c0,1.738,0.091,3.455,0.246,5.153C99.795,780.405,97.195,780,94.5,780c-12.393,0-22.796,8.508-25.694,20H396V677.981
				C393.438,677.344,390.76,678,388,678z"/>
			<circle fill="#EADCC1" cx="153.5" cy="707.5" r="7.5"/>
			<circle fill="#EADCC1" cx="220.5" cy="694.5" r="17.5"/>
			<circle fill="#EADCC1" cx="51.5" cy="786.5" r="8.5"/>
			<circle fill="#EADCC1" cx="266" cy="644" r="16"/>
			<circle fill="#EADCC1" cx="102" cy="685" r="9"/>
		</g>
		<g>
			<path fill="#FFF4DA" d="M403,678c2.356,0,4.655,0.247,6.872,0.717v-54.363h13.731v60.878c3.473,2.78,6.374,6.244,8.492,10.192
				c5.461-1.923,11.202-3.246,17.141-3.916V590.023h24.719v84.301c2.439-2.07,5.594-3.324,9.045-3.324
				c4.746,0,8.933,2.367,11.465,5.979c2.912-0.632,5.932-0.979,9.035-0.979c23.473,0,42.5,19.028,42.5,42.5
				c0,0.981-0.045,1.951-0.111,2.916c4.926-1.565,10.168-2.416,15.611-2.416c13.74,0,26.214,5.392,35.447,14.161
				C606.69,724.953,619.264,720,633,720c20.049,0,37.627,10.543,47.52,26.38c2.584-2.111,5.883-3.38,9.48-3.38
				c8.284,0,15,6.716,15,15s-6.716,15-15,15c-0.367,0-0.727-0.029-1.086-0.055c0.055,1.012,0.086,2.029,0.086,3.055
				c0,1.738-0.091,3.455-0.246,5.153c2.451-0.748,5.051-1.153,7.746-1.153c12.393,0,22.796,8.508,25.693,20H395V677.981
				C397.563,677.344,400.24,678,403,678z"/>
			<circle fill="#FFF4DA" cx="637.5" cy="707.5" r="7.5"/>
			<circle fill="#FFF4DA" cx="595.5" cy="645" r="7.5"/>
			<circle fill="#FFF4DA" cx="575.5" cy="714.5" r="17.5"/>
			<circle fill="#FFF4DA" cx="739.5" cy="786.5" r="8.5"/>
			<circle fill="#FFF4DA" cx="739" cy="748" r="16"/>
			<circle fill="#FFF4DA" cx="522" cy="677" r="9"/>
		</g>
	</g>
	<g>
		<g>
			<g>
				<rect x="304.072" y="584.772" fill="#4B72AD" width="47.498" height="12.667"/>
				<path fill="#ED7411" d="M360.015,574.746c0,7.286-5.908,13.193-13.194,13.193h-49.609c-7.286,0-13.194-5.907-13.194-13.193l0,0
					c0-7.287,5.908-13.193,13.194-13.193h49.609C354.107,561.553,360.015,567.459,360.015,574.746L360.015,574.746z"/>
			</g>
			<g>
				<rect x="440.233" y="584.772" fill="#6990C9" width="47.498" height="12.667"/>
				<path fill="#FFAE39" d="M496.176,574.746c0,7.286-5.907,13.193-13.194,13.193h-49.609c-7.286,0-13.193-5.907-13.193-13.193l0,0
					c0-7.287,5.907-13.193,13.193-13.193h49.609C490.269,561.553,496.176,567.459,496.176,574.746L496.176,574.746z"/>
			</g>
		</g>
		<g>
			<g>
				<g>
					<g>
						<path fill="#ED7411" d="M395.569,110.653c-41.014,4.916-48.184,76.564-48.184,91.241v305.828l48.184,0.031V110.653z"/>
						<path fill="#FFAE39" d="M395.576,110.622c41.217,4.947,48.388,76.595,48.388,91.272v305.828h-48.388V110.622z"/>
					</g>
					<g>
						<rect x="347.385" y="323.006" fill="#FBE920" width="48.387" height="5.629"/>
						<rect x="395.576" y="323.006" fill="#FFFE39" width="48.388" height="5.629"/>
					</g>
					<g>
						<rect x="347.385" y="222.381" fill="#FBE920" width="48.387" height="5.63"/>
						<rect x="395.576" y="222.381" fill="#FFFE39" width="48.388" height="5.63"/>
					</g>
				</g>
				<g>
					<g>
						<path fill="#CED8DD" d="M299.026,509.722h22.36V170.343c-2.279,0.568-6.344,3.284-10.955,14.186
							c-7.089,16.756-13.184,36.056-14.179,51.695c-4.511,70.893,0,272.819,0,272.819L299.026,509.722z"/>
						<path fill="#F1F1F1" d="M343.737,509.722l2.775-0.679c0,0,4.51-201.927,0-272.819c-0.995-15.64-7.09-34.939-14.178-51.695
							c-4.614-10.902-8.677-13.617-10.956-14.186v339.379H343.737z"/>
					</g>
					<g>
						<path fill="#2C2F30" d="M321.391,405.855v-6.598h-26.896c-0.012,2.19-0.021,4.391-0.03,6.598H321.391z"/>
						<path fill="#5D5D5D" d="M348.299,405.855c-0.009-2.207-0.017-4.408-0.03-6.598h-26.896v6.598H348.299z"/>
					</g>
					<g>
						<path fill="#2C2F30" d="M321.391,329.48v-6.598h-27.146c-0.012,2.19-0.021,4.391-0.03,6.598H321.391z"/>
						<path fill="#5D5D5D" d="M348.549,329.48c-0.009-2.207-0.017-4.408-0.03-6.598h-27.146v6.598H348.549z"/>
					</g>
					<g>
						<path fill="#2C2F30" d="M321.391,250.607v-6.383l-25.775-0.099c-0.188,2.188-0.268,4.347-0.275,6.482H321.391z"/>
						<path fill="#5D5D5D" d="M347.424,250.607c-0.008-2.135-0.049-4.298-0.062-6.417l-25.989,0.034v6.383H347.424z"/>
					</g>
				</g>
				<g>
					<g>
						<path fill="#CED8DD" d="M447.026,509.722h22.36V170.343c-2.279,0.568-6.344,3.284-10.955,14.186
							c-7.09,16.756-13.184,36.056-14.18,51.695c-4.511,70.893,0,272.819,0,272.819L447.026,509.722z"/>
						<path fill="#F1F1F1" d="M491.737,509.722l2.774-0.679c0,0,4.511-201.927,0-272.819c-0.994-15.64-7.09-34.939-14.178-51.695
							c-4.614-10.902-8.678-13.617-10.956-14.186v339.379H491.737z"/>
					</g>
					<g>
						<path fill="#2C2F30" d="M469.391,405.855v-6.598h-26.896c-0.012,2.19-0.021,4.391-0.029,6.598H469.391z"/>
						<path fill="#5D5D5D" d="M496.299,405.855c-0.008-2.207-0.016-4.408-0.029-6.598h-26.896v6.598H496.299z"/>
					</g>
					<g>
						<path fill="#2C2F30" d="M469.391,329.48v-6.598h-27.146c-0.012,2.19-0.021,4.391-0.029,6.598H469.391z"/>
						<path fill="#5D5D5D" d="M496.549,329.48c-0.008-2.207-0.016-4.408-0.029-6.598h-27.146v6.598H496.549z"/>
					</g>
					<g>
						<path fill="#2C2F30" d="M469.391,250.607v-6.383l-25.775-0.099c-0.188,2.188-0.268,4.347-0.275,6.482H469.391z"/>
						<path fill="#5D5D5D" d="M495.424,250.607c-0.008-2.135-0.049-4.298-0.062-6.417l-25.989,0.034v6.383H495.424z"/>
					</g>
				</g>
			</g>
			<g>
				<g>
					<path fill="#83889B" d="M349.863,392.797c-9.214,60.952-48.376,93.335-68.533,109.843
						c-20.157,16.507-15.549,43.808-15.549,43.808h-2.88v13.334l99.632,26.031v-266.67v-3.173
						C359.655,331.844,349.863,392.797,349.863,392.797z"/>
					<path fill="#1B1A22" d="M337.061,432.334c-11.796,23.02-31.467,47.639-51.699,64.591
						c-25.004,20.951-21.35,42.851-19.953,48.252h4.914c-1.335-28.616,19.646-44.442,19.646-44.442
						c29.975-26.813,45.501-50.859,53.549-68.4H337.061z"/>
					<rect x="309.55" y="525.496" fill="#1B1A22" width="27.068" height="6.347"/>
					<rect x="302.063" y="533.748" fill="#1B1A22" width="34.554" height="6.35"/>
				</g>
				<g>
					<path fill="#B6B9C1" d="M440.883,392.796c9.215,60.954,48.377,93.334,68.533,109.842
						c20.158,16.506,15.551,43.807,15.551,43.807h2.879v13.332l-99.634,26.033V319.142v-3.172
						C431.093,331.843,440.883,392.796,440.883,392.796z"/>
					<path fill="#1B1A22" d="M505.385,496.924c-20.232-16.953-39.902-41.571-51.698-64.59h-6.458
						c8.047,17.541,23.573,41.589,53.55,68.4c0,0,20.98,15.826,19.646,44.441h4.914
						C526.734,539.771,530.391,517.875,505.385,496.924z"/>
					<rect x="454.129" y="525.492" fill="#1B1A22" width="27.067" height="6.35"/>
					<rect x="454.129" y="533.746" fill="#1B1A22" width="34.556" height="6.35"/>
				</g>
				<g>
					<path fill="#BCC1BD" d="M378.02,221.75c-0.3,0.901-0.604,1.825-0.913,2.79c-18.43,57.566-16.125,118.519-16.125,118.519
						v247.198h34.553V221.75H378.02z"/>
					<path fill="#DAE0DC" d="M413.986,224.66c-0.322-1.008-0.639-1.97-0.953-2.91h-17.476v368.625h34.556V343.178
						C430.113,343.178,432.416,282.225,413.986,224.66z"/>
				</g>
				<rect x="356.967" y="605.073" fill="#312F30" width="38.394" height="12.699"/>
				<rect x="395.384" y="605.191" fill="#312F30" width="38.396" height="12.698"/>
				<g>
					<path fill="#4B72AD" d="M395.535,277v-30.217c-13.611,0.217-18.012,5.449-19.965,10.773
						c-1.696,4.624-3.162,19.443-3.162,19.443H395.535z"/>
					<path fill="#6990C9" d="M418.658,277c0,0-1.541-13.959-3.135-18.325c-1.987-5.443-6.85-11.675-19.963-11.773V277H418.658z"/>
				</g>
				<g>
					<path fill="#181B28" d="M395.535,224.538v-27.936c-5.194-0.019-9.837,1.101-18.428,27.936H395.535z"/>
					<path fill="#2E3140" d="M395.558,224.546V196.61c4.616-0.138,9.838,1.101,18.43,27.936H395.558z"/>
				</g>
				<g>
					<path fill="#939995" d="M395.54,305.812v-4.236H362.45c-0.124,1.441-0.236,2.85-0.342,4.236H395.54z"/>
					<path fill="#A8ADAA" d="M428.986,305.812c-0.106-1.39-0.22-2.795-0.343-4.236h-33.082v4.236H428.986z"/>
				</g>
				<g>
					<rect x="360.981" y="359.146" fill="#939995" width="34.554" height="5.078"/>
					<rect x="395.558" y="359.146" fill="#A8ADAA" width="34.555" height="5.078"/>
				</g>
				<g>
					<rect x="360.981" y="416.994" fill="#939995" width="34.554" height="5.078"/>
					<rect x="395.558" y="416.994" fill="#A8ADAA" width="34.555" height="5.078"/>
				</g>
				<g>
					<rect x="360.981" y="474.841" fill="#939995" width="34.554" height="5.08"/>
					<rect x="395.558" y="474.841" fill="#A8ADAA" width="34.555" height="5.08"/>
				</g>
				<g>
					<rect x="360.981" y="532.692" fill="#939995" width="34.554" height="5.08"/>
					<rect x="395.558" y="532.692" fill="#A8ADAA" width="34.555" height="5.08"/>
				</g>
				<circle fill="#83889B" cx="467.615" cy="506.929" r="12.402"/>
				<g>
					<rect x="392.161" y="301.667" fill="#939995" width="3.168" height="289.117"/>
					<rect x="395.324" y="301.667" fill="#A8ADAA" width="3.168" height="289.181"/>
				</g>
				<path fill="#B8BCC1" d="M349.29,609.732h46.072v-66.033c0,0-46.072-5.079-46.072,21.166V609.732z"/>
				<path fill="#CDCFD3" d="M441.458,609.848h-46.074v-66.031c0,0,46.074-5.08,46.074,21.166V609.848z"/>
			</g>
		</g>
		<g>
			<rect x="359.04" y="621.816" fill="#4B72AD" width="29.517" height="7.871"/>
			<path fill="#ED7411" d="M392.978,615.585c0,3.679-2.982,6.66-6.66,6.66h-25.039c-3.678,0-6.66-2.981-6.66-6.66l0,0
				c0-3.678,2.982-6.659,6.66-6.659h25.039C389.996,608.926,392.978,611.907,392.978,615.585L392.978,615.585z"/>
		</g>
		<g>
			<rect x="401.866" y="621.755" fill="#6990C9" width="29.516" height="7.871"/>
			<path fill="#FFAE39" d="M435.805,615.523c0,3.678-2.983,6.66-6.661,6.66h-25.039c-3.678,0-6.661-2.982-6.661-6.66l0,0
				c0-3.678,2.982-6.659,6.661-6.659h25.039C432.821,608.864,435.805,611.846,435.805,615.523L435.805,615.523z"/>
		</g>
	</g>
	<g>
		<circle fill="#FFFFFF" cx="159.353" cy="297.346" r="3.094"/>
		<circle fill="#FFFFFF" cx="244.005" cy="424.09" r="3.094"/>
		<circle fill="#FFFFFF" cx="70.974" cy="415.881" r="3.094"/>
		<circle fill="#FFFFFF" cx="29.07" cy="303.48" r="3.094"/>
		<circle fill="#FFFFFF" cx="217.1" cy="534.99" r="3.094"/>
		<circle fill="#FFFFFF" cx="34.109" cy="591.987" r="3.094"/>
		<circle fill="#FFFFFF" cx="154.103" cy="441.995" r="3.094"/>
		<circle opacity="0.4" fill="#FFFFFF" cx="377.592" cy="58.014" r="3.094"/>
		<circle opacity="0.4" fill="#FFFFFF" cx="110.605" cy="50.514" r="3.094"/>
		<circle opacity="0.7" fill="#FFFFFF" cx="238.099" cy="173.696" r="3.094"/>
		<circle opacity="0.4" fill="#FFFFFF" cx="23.61" cy="47.608" r="3.094"/>
		<circle opacity="0.4" fill="#FFFFFF" cx="233.599" cy="26.609" r="3.094"/>
		<circle opacity="0.7" fill="#FFFFFF" cx="65.608" cy="193.007" r="3.094"/>
		<circle opacity="0.7" fill="#FFFFFF" cx="151.103" cy="152.603" r="1.933"/>
		<circle fill="#FFFFFF" cx="256.098" cy="306.662" r="1.933"/>
		<circle fill="#FFFFFF" cx="120.671" cy="557.583" r="1.933"/>
		<circle opacity="0.4" fill="#FFFFFF" cx="65.608" cy="123.671" r="1.933"/>
		<circle fill="#FFFFFF" cx="48.042" cy="715.075" r="1.933"/>
	</g>
	<g>
		<circle opacity="0.4" fill="#FFFFFF" cx="614.674" cy="358.093" r="3.094"/>
		<circle fill="#FFFFFF" cx="559.177" cy="476.587" r="3.094"/>
		<circle opacity="0.4" fill="#FFFFFF" cx="782.571" cy="283.003" r="3.094"/>
		<circle opacity="0.4" fill="#FFFFFF" cx="667.077" cy="400.185" r="3.093"/>
		<circle fill="#FFFFFF" cx="635.579" cy="588.987" r="3.093"/>
		<circle fill="#FFFFFF" cx="766.167" cy="591.988" r="3.093"/>
		<circle fill="#FFFFFF" cx="692.576" cy="474.993" r="3.093"/>
		<circle opacity="0.4" fill="#FFFFFF" cx="443.682" cy="29.609" r="3.093"/>
		<circle opacity="0.4" fill="#FFFFFF" cx="689.67" cy="50.515" r="3.093"/>
		<circle opacity="0.4" fill="#FFFFFF" cx="607.174" cy="68.607" r="3.094"/>
		<circle opacity="0.4" fill="#FFFFFF" cx="776.666" cy="47.608" r="3.093"/>
		<circle opacity="0.4" fill="#FFFFFF" cx="485.586" cy="103.012" r="3.094"/>
		<circle opacity="0.4" fill="#FFFFFF" cx="698.669" cy="233.599" r="3.093"/>
		<circle opacity="0.4" fill="#FFFFFF" cx="649.172" cy="152.603" r="1.933"/>
		<circle opacity="0.4" fill="#FFFFFF" cx="550.083" cy="224.6" r="1.933"/>
		<circle fill="#FFFFFF" cx="689.576" cy="665.144" r="1.934"/>
		<circle opacity="0.4" fill="#FFFFFF" cx="734.667" cy="123.671" r="1.933"/>
		<circle fill="#FFFFFF" cx="752.233" cy="715.076" r="1.934"/>
	</g>
</g>
</svg>
